HIERARCHY
ROOT Hips
{
  OFFSET 179.979 97.3047 303.174
  CHANNELS 6 Xposition Yposition Zposition Zrotation Xrotation Yrotation
  JOINT Spine
  {
    OFFSET 0.000859786 9.92346 -1.22733
    CHANNELS 3 Zrotation Xrotation Yrotation
    JOINT Spine1
    {
      OFFSET 0 11.732 0
      CHANNELS 3 Zrotation Xrotation Yrotation
      JOINT Spine2
      {
        OFFSET 0 13.4588 0
        CHANNELS 3 Zrotation Xrotation Yrotation
        JOINT Neck
        {
          OFFSET 2.54812e-05 15.0278 0.877907
          CHANNELS 3 Zrotation Xrotation Yrotation
          JOINT Head
          {
            OFFSET 0 10.3218 3.14243
            CHANNELS 3 Zrotation Xrotation Yrotation
            End Site
            {
              OFFSET 0 0 0
            }
          }
        }
        JOINT LeftShoulder
        {
          OFFSET 6.10582 9.10629 0.757062
          CHANNELS 3 Zrotation Xrotation Yrotation
          JOINT LeftArm
          {
            OFFSET 0 12.9223 0
            CHANNELS 3 Zrotation Xrotation Yrotation
            JOINT LeftForeArm
            {
              OFFSET 0 27.4047 0
              CHANNELS 3 Zrotation Xrotation Yrotation
              JOINT LeftHand
              {
                OFFSET -1.28204e-05 27.6145 0
                CHANNELS 3 Zrotation Xrotation Yrotation
                End Site
                {
                  OFFSET 0 0 0
                }
              }
            }
          }
        }
        JOINT RightShoulder
        {
          OFFSET -6.1057 9.10638 0.757076
          CHANNELS 3 Zrotation Xrotation Yrotation
          JOINT RightArm
          {
            OFFSET 0 12.9223 0
            CHANNELS 3 Zrotation Xrotation Yrotation
            JOINT RightForeArm
            {
              OFFSET 0 27.4047 0
              CHANNELS 3 Zrotation Xrotation Yrotation
              JOINT RightHand
              {
                OFFSET 1.28428e-05 27.6145 1.44975e-05
                CHANNELS 3 Zrotation Xrotation Yrotation
                End Site
                {
                  OFFSET 0 0 0
                }
              }
            }
          }
        }
      }
    }
  }
  JOINT LeftUpLeg
  {
    OFFSET 9.12387 -6.65719 -0.0554031
    CHANNELS 3 Zrotation Xrotation Yrotation
    JOINT LeftLeg
    {
      OFFSET 0 40.5994 0
      CHANNELS 3 Zrotation Xrotation Yrotation
      JOINT LeftFoot
      {
        OFFSET 0 42.099 0
        CHANNELS 3 Zrotation Xrotation Yrotation
        JOINT LeftToeBase
        {
          OFFSET 0 15.7216 0
          CHANNELS 3 Zrotation Xrotation Yrotation
          End Site
          {
            OFFSET 0 0 0
          }
        }
      }
    }
  }
  JOINT RightUpLeg
  {
    OFFSET -9.12503 -6.6556 -0.0553527
    CHANNELS 3 Zrotation Xrotation Yrotation
    JOINT RightLeg
    {
      OFFSET 0 40.5994 0
      CHANNELS 3 Zrotation Xrotation Yrotation
      JOINT RightFoot
      {
        OFFSET 0 42.099 0
        CHANNELS 3 Zrotation Xrotation Yrotation
        JOINT RightToeBase
        {
          OFFSET 0 15.7216 0
          CHANNELS 3 Zrotation Xrotation Yrotation
          End Site
          {
            OFFSET 0 0 0
          }
        }
      }
    }
  }
}
MOTION
Frames:	11
Frame Time:	0.0333333
83.7495 86.9756 -283.772 6.17368 4.39442 102.961 -1.47945 -2.01693 -1.60013 -2.86175 9.94475 -2.72593 -2.53243 16.5316 -2.802 -3.24482 16.5354 -6.37343 20.5924 -12.2015 -10.3474 -94.6446 -14.2869 90.3141 -12.324 61.1437 30.7739 83.0077 -5.34066 0.676385 7.17612 -8.82901 62.3763 100.108 -24.6351 -88.4228 27.1626 43.8574 -65.5546 -28.3971 -9.91057 0.669755 6.7855 3.20239 -14.8235 179.513 -26.2532 -1.31195 -4.99957 -23.819 0.0182706 174.984 87.0933 -171.94 -0.965264 26.367 -3.60229 170.144 39.4958 13.954 3.80689 -40.993 6.61863 -12.8263 56.708 4.2187 0.96355 26.3682 3.55537 
86.3919 86.6351 -283.818 4.84787 2.71566 101.804 -0.959523 -1.71983 -1.53012 -1.80835 10.5294 -2.75482 -1.47464 17.116 -2.83481 -2.34427 17.1187 -6.28364 19.4361 -13.3427 -9.60683 -94.8756 -13.2573 90.4541 -10.3364 61.1611 28.6767 77.3166 -7.72225 0.425043 8.98728 -11.1956 59.3104 100.1 -24.0335 -88.5401 24.2155 44.4726 -61.8297 -28.2956 -9.8299 0.667202 6.39067 0.927525 -10.5236 -178.99 -23.8311 -3.85942 -4.18873 -28.0309 1.2197 -86.01 89.1914 87.9269 -0.965264 26.367 -3.60229 170.525 41.6225 17.5734 4.35025 -44.9178 5.21412 -14.0179 59.6794 2.29503 0.96355 26.3682 3.55537 
89.1205 86.3093 -283.809 4.04244 1.28726 100.558 -0.481332 -1.37583 -1.56603 -0.825542 11.2079 -2.98817 -0.462509 17.7931 -3.07896 -1.76924 18.4796 -5.8324 18.2564 -13.6474 -8.77746 -95.1538 -12.5691 90.5522 -7.17881 62.1787 26.8778 68.6542 -11.2386 0.0606479 7.01096 -13.2634 54.2681 99.9 -22.6917 -88.8137 20.9719 44.8151 -57.9846 -29.2777 -9.80688 0.673998 6.57846 -1.03379 -6.83256 -177.435 -19.8968 -6.22233 -3.28454 -35.9168 2.11487 -14.6395 84.2786 16.6081 -0.965264 26.367 -3.60229 171.789 42.7469 19.2183 4.12071 -48.4716 3.93435 -14.6326 63.172 1.57627 0.96355 26.3682 3.55537 
91.4976 86.6263 -283.806 3.34983 -0.326586 99.9048 -0.0012645 -1.14982 -1.64501 0.166326 11.6474 -3.31526 0.569752 18.2305 -3.41879 -1.2348 19.879 -5.42088 17.0869 -13.1889 -8.10923 -95.0313 -11.9202 90.6382 -2.07892 63.8746 24.3223 57.8965 -14.5419 -0.321352 0.799928 -13.7054 46.972 99.8829 -21.5179 -89.0368 17.8348 44.8113 -54.2815 -32.2037 -10.0199 0.704807 6.98186 -2.50779 -6.39309 -175.077 -13.7112 -6.00974 -2.85151 -46.2598 1.98627 -12.9242 75.79 10.1467 -0.965264 26.367 -3.60229 174.13 42.6742 18.383 4.16136 -49.5381 3.96317 -14.8953 65.3004 2.32 0.96355 26.3682 3.55537 
93.6416 87.3833 -283.89 2.66953 -1.33421 99.8128 0.329675 -1.05707 -1.67798 0.847435 11.8222 -3.49884 1.27343 18.404 -3.60918 -0.707065 20.5999 -5.13972 15.7414 -12.7009 -7.52768 -94.6184 -11.1097 90.7345 3.11788 65.3247 21.2992 47.7848 -16.1346 -0.574712 -6.98221 -11.5105 40.9344 100.02 -20.9663 -89.1324 15.5764 44.5359 -50.931 -37.2829 -10.3745 0.752096 6.83411 -3.82452 -9.69272 -173.734 -6.04849 -4.64934 -3.0947 -58.5421 0.452096 -11.5069 69.8271 5.65559 -0.965264 26.367 -3.60229 176.068 41.8259 16.5146 4.50066 -49.1178 4.81632 -15.7303 66.5448 3.90505 0.96355 26.3682 3.55537 
95.6204 88.3901 -284.083 2.16543 -1.62335 99.565 0.49483 -1.02353 -1.57035 1.17399 11.8849 -3.34076 1.58093 18.4678 -3.44643 -0.515153 20.7418 -4.69727 14.2027 -12.5504 -6.82635 -94.3651 -10.5147 90.803 5.66785 66.1291 19.8226 41.1197 -16.3935 -0.677458 -12.8177 -7.95604 40.3153 99.755 -20.4825 -89.2385 14.3921 44.5084 -48.1883 -43.7437 -10.4438 0.783927 5.75541 -5.31586 -14.2612 -173.604 2.3721 -3.96008 -2.88191 -70.8071 -0.543703 -9.80267 67.5005 3.36957 -0.965264 26.367 -3.60229 177.236 40.2807 14.8056 4.76909 -47.8716 5.37528 -16.3198 67.3196 5.02664 0.96355 26.3682 3.55537 
97.6738 89.712 -284.348 2.04935 -1.16466 98.784 0.495772 -0.994676 -1.30174 1.14824 11.9457 -2.79964 1.48966 18.532 -2.88851 -0.82839 20.8358 -3.99125 12.7444 -12.4198 -6.06088 -94.5186 -10.6293 90.7939 4.71076 66.3977 21.2302 38.6847 -16.4118 -0.704825 -15.4022 -5.18662 44.6122 98.7904 -19.5207 -89.4612 13.7399 44.9816 -46.1483 -50.363 -10.0499 0.790455 4.09831 -6.7855 -17.2492 -174.309 10.2814 -5.03041 0.292189 -81.8737 1.71455 -6.23479 70.3457 2.33648 -0.965264 26.367 -3.60229 177.751 37.664 13.4242 4.79419 -45.8202 5.22609 -16.236 67.8292 5.18485 0.96355 26.3682 3.55537 
99.6905 91.0937 -284.649 2.30406 -0.395859 97.8087 0.452132 -0.974326 -0.882662 1.01487 11.9918 -1.93936 1.25192 18.5824 -2.00101 -1.63028 21.0483 -3.37234 11.8011 -12.1075 -5.67181 -94.8927 -11.3297 90.7138 1.36656 66.2615 24.9764 39.5118 -16.5326 -0.701513 -15.1646 -4.23311 49.6524 97.4121 -18.2447 -89.7314 13.1098 45.529 -44.3887 -56.4335 -9.34767 0.773952 2.51019 -7.66926 -18.2625 -174.463 17.92 -7.25554 130.563 -88.169 130.644 -4.1003 69.7868 -0.233878 -0.965264 26.367 -3.60229 177.895 34.4502 12.0429 4.9073 -43.3586 5.01675 -15.9456 68.1136 5.05601 0.96355 26.3682 3.55537 
101.659 92.4142 -284.992 2.81516 0.56709 97.1366 0.428507 -0.963118 -0.372982 0.912082 12.0192 -0.903239 1.02324 18.6128 -0.931749 -3.1521 21.0604 -3.2337 11.8891 -11.8496 -6.20709 -95.2473 -12.1336 90.6141 -2.70132 65.8376 29.5608 42.0861 -16.6487 -0.676922 -13.2253 -5.08561 51.9823 95.974 -16.9799 -89.9665 12.1917 45.7473 -42.0793 -61.8256 -8.42061 0.73649 1.285 -7.62386 -18.7686 -174.484 25.3829 -9.362 166.162 -80.7655 164.606 -0.660949 69.0983 -3.6369 -0.965264 26.367 -3.60229 177.43 30.9418 10.912 5.31177 -40.8271 5.06397 -15.7727 68.3369 5.06041 0.96355 26.3682 3.55537 
103.576 93.6626 -285.387 3.56344 1.77561 97.2494 0.430889 -0.92525 0.104492 0.865685 12.0987 0.0586448 0.8599 18.6932 0.061028 -5.35222 20.6152 -3.77867 12.9931 -11.7605 -7.8323 -95.4839 -12.6811 90.5428 -6.11055 65.3042 33.3409 45.0565 -16.6719 -0.638648 -10.5305 -7.17471 51.458 94.6361 -15.7734 -90.158 10.6623 45.5164 -38.7252 -66.2825 -7.35852 0.688517 0.282326 -6.90429 -19.7372 -174.742 33.0076 -10.8089 169.786 -74.4446 167.558 1.57005 69.1083 -5.30958 -0.965264 26.367 -3.60229 176.064 27.0853 10.7673 5.89795 -38.3199 5.16508 -15.6124 68.6257 5.06673 0.96355 26.3682 3.55537 
105.409 94.7761 -285.832 4.58899 3.24119 98.2826 0.449322 -0.839105 0.48346 0.861946 12.2738 0.815962 0.763934 18.8676 0.843161 -7.48774 19.951 -4.94478 14.2776 -11.6483 -10.0714 -95.5541 -12.7943 90.5282 -7.9925 64.9024 35.2353 47.3335 -16.5789 -0.600814 -7.50496 -9.62429 49.7784 93.5084 -14.549 -90.3209 8.18331 44.7711 -34.5354 -69.2005 -6.52849 0.653069 -0.645932 -6.0933 -20.8205 -175.157 40.6018 -11.4529 171.112 -69.614 169.262 0.718682 68.674 -4.75417 -0.965264 26.367 -3.60229 173.944 22.8822 11.5798 6.67413 -36.0332 5.34902 -15.5279 69.0667 5.16166 0.96355 26.3682 3.55537 
